<?xml version="1.0" encoding="UTF-8"?>
<svg class="graph__svg" viewBox="0 0 300 150" preserveAspectRatio="xMidYMid meet">
          <defs>
            <linearGradient id="spinal-stroke" x1="0" y1="1" x2="1" y2="0">
              <stop offset="0%" stop-color="#C54B8C"/>
              <stop offset="100%" stop-color="#553C9A"/>
            </linearGradient>
          </defs>
          <!-- grid lines 0–100% mapped to y=0–150 -->
          <line x1="0" y1="0"   x2="300" y2="0"   stroke="rgba(85,60,154,0.10)" stroke-width="0.6"/>
          <line x1="0" y1="15"  x2="300" y2="15"  stroke="rgba(85,60,154,0.07)" stroke-width="0.5"/>
          <line x1="0" y1="30"  x2="300" y2="30"  stroke="rgba(85,60,154,0.07)" stroke-width="0.5"/>
          <line x1="0" y1="45"  x2="300" y2="45"  stroke="rgba(85,60,154,0.07)" stroke-width="0.5"/>
          <line x1="0" y1="60"  x2="300" y2="60"  stroke="rgba(85,60,154,0.07)" stroke-width="0.5"/>
          <line x1="0" y1="75"  x2="300" y2="75"  stroke="rgba(85,60,154,0.07)" stroke-width="0.5"/>
          <line x1="0" y1="90"  x2="300" y2="90"  stroke="rgba(85,60,154,0.07)" stroke-width="0.5"/>
          <line x1="0" y1="105" x2="300" y2="105" stroke="rgba(85,60,154,0.07)" stroke-width="0.5"/>
          <line x1="0" y1="120" x2="300" y2="120" stroke="rgba(85,60,154,0.07)" stroke-width="0.5"/>
          <line x1="0" y1="135" x2="300" y2="135" stroke="rgba(85,60,154,0.07)" stroke-width="0.5"/>
          <line x1="0" y1="150" x2="300" y2="150" stroke="rgba(85,60,154,0.10)" stroke-width="0.6"/>
          <path class="graph__line graph__line--faint graph__line--seg1"
                d="M 0 92 C 25 87 50 96 82 75"
                stroke="url(#spinal-stroke)"/>
          <path class="graph__line graph__line--glow graph__line--seg2"
                d="M 82 75 C 108 58 138 92 162 72 C 188 54 212 52 240 28"
                stroke="url(#spinal-stroke)"/>
          <path class="graph__line graph__line--faint graph__line--seg3"
                d="M 240 28 C 260 32 280 22 300 18"
                stroke="url(#spinal-stroke)"/>
          <circle class="graph__dot graph__dot--std" cx="82" cy="75" r="6"/>
          <circle class="graph__dot graph__dot--cal" cx="240" cy="28" r="6.5"/>
        </svg>